<svg id="logosandtypes_com" data-name="logosandtypes com" xmlns="http://www.w3.org/2000/svg"
  viewBox="0 0 150 150">
  <defs>
    <style>
      .cls-1 {
      fill: #6D28D9;
      }

      .cls-2 {
      fill: none;
      }
    </style>
  </defs>
  <path id="Layer_3" data-name="Layer 3" class="cls-2" d="M0,0H150V150H0V0Z" />
  <path class="cls-1"
    d="M137.31,101.27c-1.4,4.19-4.19,7.58-8.18,9.58-7.98,4.19-17.96,1-22.15-6.98l-3.19-6.18,17.56-33.52c.4-.8,.8-1.6,1-2.19l13.97,26.73c2,3.99,2.39,8.38,1,12.57m-93.77,2.59c-10.94,18.87-38.83,4.29-29.13-15.16l13.97-26.73c.4,.8,.6,1.6,1,2.19l17.56,33.52-3.39,6.18Zm24.94,6.98c-7.98-3.88-11.5-14.33-6.98-22.15l13.77-26.53,13.77,26.53c2,3.99,2.39,8.38,1.2,12.57-1.4,4.19-4.19,7.58-8.18,9.58-4.49,2.39-9.08,2.39-13.57,0M35.95,47.6c.2-.6,.4-1.2,.6-1.8,1.94-4.33,5.49-7.51,9.98-8.98,3.13-1.09,6.74-1.09,9.98,0,4.19,1.4,7.58,4.19,9.58,8.18l.4,.6c2,4.39,2.19,9.78-.4,14.56l-14.56,28.13-14.56-28.13c-2-3.99-2.19-8.38-1-12.57m77.61,12.57l-14.56,28.13-14.56-28.13c-2-3.99-2.39-8.38-1.2-12.57,.2-.6,.4-1.2,.6-1.8,1.94-4.33,5.49-7.51,9.98-8.98,3.13-1.09,6.74-1.09,9.98,0,4.19,1.4,7.58,4.19,9.58,8.18l.4,.6c2.19,4.39,2.19,9.78-.2,14.56m30.53,24.54l-22.35-43.09c-2.19-4.79-5.99-8.98-11.17-11.57-7.56-3.88-15.96-3.6-23.54,0-4.99,2.59-8.78,6.78-11.17,11.57l-.8,1.4-.8-1.4c-8.87-19.13-36.63-19.12-45.69,0,0,0-22.15,43.09-22.15,43.09-6.59,11.73-1.66,28.23,10.57,34.12,12.26,6.35,27.52,1.58,34.12-10.77l.4-.8,.4,.8c9.36,18.14,37.32,18.14,46.69,0l.4-.8,.4,.8c6.51,12.4,22.06,17.03,34.12,10.77,12.23-6.12,17.18-22.28,10.57-34.12" />
</svg>